<?xml version="1.0" encoding="UTF-8" standalone="no"?><!DOCTYPE svg PUBLIC "-//W3C//DTD SVG 1.1//EN" "http://www.w3.org/Graphics/SVG/1.1/DTD/svg11.dtd"><!-- Generated by graphviz version 2.40.1 (20161225.0304)
 --><!-- Title: G Pages: 1 --><svg xmlns="http://www.w3.org/2000/svg" xmlns:xlink="http://www.w3.org/1999/xlink" width="152pt" height="222pt" viewBox="0.00 0.00 151.55 221.60">
<g id="graph0" class="graph" transform="scale(1 1) rotate(0) translate(4 217.6)">
<title>G</title>
<polygon fill="#ffffff" stroke="transparent" points="-4,4 -4,-217.6 147.5481,-217.6 147.5481,4 -4,4"/>
<!-- Policy -->
<g id="node1" class="node">
<title>Policy</title>
<ellipse fill="none" stroke="#000000" cx="51.7907" cy="-195.6" rx="35.9329" ry="18"/>
<text text-anchor="middle" x="51.7907" y="-191.4" font-family="Times,serif" font-size="14.00" fill="#000000">Policy</text>
</g>
<!-- Descriptor -->
<g id="node2" class="node">
<title>Descriptor</title>
<ellipse fill="#c0c0c0" stroke="#c0c0c0" cx="51.7907" cy="-106.8" rx="51.5823" ry="18"/>
<text text-anchor="middle" x="51.7907" y="-102.6" font-family="Times,serif" font-size="14.00" fill="#000000">Descriptor</text>
</g>
<!-- Policy&#45;&gt;Descriptor -->
<g id="edge1" class="edge">
<title>Policy-&gt;Descriptor</title>
<path fill="none" stroke="#000000" d="M51.7907,-177.2006C51.7907,-165.0949 51.7907,-149.0076 51.7907,-135.2674"/>
<polygon fill="#000000" stroke="#000000" points="55.2908,-134.872 51.7907,-124.872 48.2908,-134.8721 55.2908,-134.872"/>
<text text-anchor="middle" x="97.6694" y="-147" font-family="Times,serif" font-size="14.00" fill="#000000"> bdk-cli compile</text>
</g>
<!-- Sweep -->
<g id="node3" class="node">
<title>Sweep</title>
<ellipse fill="none" stroke="#000000" cx="51.7907" cy="-18" rx="36.5575" ry="18"/>
<text text-anchor="middle" x="51.7907" y="-13.8" font-family="Times,serif" font-size="14.00" fill="#000000">Sweep</text>
</g>
<!-- Descriptor&#45;&gt;Sweep -->
<g id="edge2" class="edge">
<title>Descriptor-&gt;Sweep</title>
<path fill="none" stroke="#000000" d="M51.7907,-88.4006C51.7907,-76.2949 51.7907,-60.2076 51.7907,-46.4674"/>
<polygon fill="#000000" stroke="#000000" points="55.2908,-46.072 51.7907,-36.072 48.2908,-46.0721 55.2908,-46.072"/>
<text text-anchor="middle" x="92.2227" y="-58.2" font-family="Times,serif" font-size="14.00" fill="#000000"> bdk-cli wallet</text>
</g>
</g>
</svg>