<?xml version="1.0" standalone="no"?>
<!DOCTYPE svg PUBLIC "-//W3C//DTD SVG 20010904//EN"
 "http://www.w3.org/TR/2001/REC-SVG-20010904/DTD/svg10.dtd">
<svg version="1.0" xmlns="http://www.w3.org/2000/svg"
 width="880.000000pt" height="880.000000pt" viewBox="0 0 880.000000 880.000000"
 preserveAspectRatio="xMidYMid meet">
<metadata>
Created by potrace 1.11, written by Peter Selinger 2001-2013
</metadata>
<g transform="translate(0.000000,880.000000) scale(0.100000,-0.100000)"
fill="#000000" stroke="none">
<path d="M5580 8047 c-3 -3 -30 -8 -60 -12 -118 -15 -299 -90 -401 -168 -93
-70 -144 -120 -209 -203 -24 -30 -188 -292 -203 -324 -4 -8 -15 -28 -25 -45
-52 -84 -192 -355 -192 -369 0 -4 -15 -37 -33 -74 -18 -37 -34 -70 -35 -75 -1
-4 -9 -23 -17 -43 -8 -20 -15 -39 -15 -42 0 -3 -12 -35 -26 -71 -15 -36 -33
-86 -40 -111 -63 -221 -70 -249 -78 -288 -1 -7 -6 -11 -11 -10 -8 3 -65 110
-95 181 -6 12 -14 29 -20 37 -5 8 -60 119 -123 245 -127 257 -265 506 -297
535 -3 3 -25 31 -49 63 -78 103 -185 192 -306 255 -115 59 -206 101 -237 108
-10 2 -28 7 -40 10 -66 16 -252 24 -318 13 -25 -4 -63 -11 -85 -14 -22 -4 -48
-11 -57 -16 -10 -5 -18 -8 -18 -5 0 5 -94 -31 -155 -59 -117 -55 -272 -188
-351 -302 -18 -26 -37 -53 -41 -58 -4 -6 -45 -85 -90 -176 -81 -163 -136 -261
-268 -474 -90 -145 -154 -256 -230 -401 -17 -33 -36 -67 -41 -75 -4 -8 -9 -20
-10 -27 -2 -8 -9 -21 -17 -30 -8 -10 -22 -38 -32 -64 -10 -27 -21 -48 -25 -48
-4 0 -10 -13 -13 -29 -3 -16 -13 -36 -22 -44 -9 -9 -15 -19 -15 -22 3 -14 -25
-75 -34 -75 -5 0 -7 -2 -4 -6 3 -3 -7 -32 -23 -65 -16 -32 -29 -61 -29 -64 0
-6 -67 -153 -80 -177 -6 -10 -10 -25 -10 -33 0 -8 -4 -15 -8 -15 -5 0 -9 -6
-9 -12 0 -7 -7 -29 -16 -48 -8 -19 -28 -62 -43 -95 -15 -33 -29 -66 -30 -73
-1 -8 -9 -28 -17 -45 -42 -89 -147 -349 -147 -362 0 -8 -4 -15 -10 -15 -5 0
-10 -7 -10 -16 0 -8 -8 -34 -19 -57 -10 -23 -53 -136 -96 -252 -42 -115 -80
-219 -85 -230 -4 -11 -8 -23 -9 -27 -1 -5 -9 -32 -20 -60 -10 -29 -26 -78 -35
-108 -10 -30 -20 -62 -24 -70 -3 -8 -6 -17 -7 -20 0 -3 -9 -32 -19 -65 -10
-33 -19 -64 -20 -70 -2 -5 -8 -30 -15 -55 -7 -25 -15 -54 -17 -65 -2 -11 -12
-50 -23 -87 -11 -38 -17 -68 -14 -68 3 0 0 -7 -7 -15 -7 -8 -10 -15 -7 -15 4
0 0 -18 -8 -40 -8 -22 -12 -40 -10 -40 2 0 -2 -18 -10 -40 -8 -22 -12 -40 -10
-40 2 0 -5 -28 -15 -62 -11 -34 -17 -65 -14 -70 3 -4 0 -8 -7 -8 -7 0 -10 -3
-7 -6 3 -3 -5 -44 -18 -92 -13 -48 -24 -87 -23 -87 1 0 -5 -20 -12 -45 -7 -25
-13 -47 -14 -50 0 -3 -5 -23 -10 -45 -10 -47 -12 -54 -15 -57 -2 -3 -5 -16
-13 -53 -3 -11 -21 -81 -40 -155 -20 -74 -38 -146 -41 -160 -4 -20 -76 -293
-103 -390 -4 -14 -8 -137 -10 -273 -4 -234 -3 -253 18 -315 46 -143 145 -299
251 -397 75 -70 107 -95 118 -95 6 0 10 -4 10 -8 0 -18 228 -120 307 -137 157
-34 324 -38 440 -10 13 3 31 7 40 9 74 17 205 73 282 121 42 26 131 98 131
106 0 5 7 9 15 9 8 0 15 3 15 8 0 4 13 21 28 37 63 68 196 275 177 275 -3 0 3
12 12 27 10 15 17 28 16 30 -2 2 -2 5 -2 8 3 13 6 21 12 35 9 23 26 110 32
159 3 24 12 71 21 105 9 33 17 66 18 71 1 6 5 16 9 23 5 6 6 12 3 12 -3 0 2
23 10 52 9 28 18 60 20 70 2 10 6 27 9 38 3 11 7 29 10 40 3 11 7 28 9 37 5
20 46 179 77 293 10 41 21 84 24 95 5 23 18 77 21 88 1 4 2 8 4 10 1 1 3 9 5
17 2 8 7 26 10 40 3 14 8 36 11 50 2 14 9 36 13 50 14 37 61 220 65 250 1 9 5
21 10 28 4 6 5 12 2 12 -3 0 1 18 9 40 8 22 15 44 15 48 0 4 5 23 10 42 5 19
11 46 14 60 2 14 5 26 7 28 1 1 2 5 3 10 20 76 71 241 86 277 4 11 25 67 45
125 36 102 97 265 114 305 5 11 21 52 36 90 15 39 33 84 40 100 26 59 44 101
78 185 30 75 56 136 87 205 5 11 20 46 33 79 13 32 27 55 29 50 3 -5 41 -76
83 -159 93 -180 188 -361 267 -509 32 -60 58 -113 58 -117 0 -4 6 -14 13 -21
6 -8 19 -27 28 -44 106 -201 155 -295 197 -377 44 -86 120 -203 159 -247 76
-86 131 -138 220 -211 66 -53 293 -172 349 -182 11 -2 37 -9 59 -15 69 -18
117 -24 225 -25 146 -1 187 7 309 62 120 55 188 86 246 112 22 10 56 32 75 49
67 60 150 143 150 151 0 4 9 18 20 31 40 46 92 135 155 263 61 126 155 336
160 359 3 14 14 43 31 82 8 17 15 40 17 50 2 11 11 44 22 74 17 52 19 53 28
30 5 -14 17 -41 25 -60 9 -19 17 -38 18 -42 1 -5 3 -11 4 -15 1 -5 2 -11 1
-15 0 -5 4 -8 9 -8 5 0 9 -3 9 -7 -1 -5 0 -11 1 -15 1 -5 3 -11 5 -15 1 -5 6
-19 12 -33 14 -32 68 -175 100 -265 14 -38 29 -79 34 -90 5 -11 33 -93 62
-181 30 -89 56 -165 59 -170 3 -5 11 -31 18 -59 7 -27 16 -54 20 -60 4 -5 27
-71 50 -145 23 -74 47 -141 52 -148 6 -6 8 -12 5 -12 -3 0 15 -60 39 -132 25
-73 47 -137 48 -143 2 -5 6 -17 9 -25 3 -8 19 -53 36 -100 82 -233 143 -366
258 -556 32 -53 63 -105 69 -115 6 -10 18 -27 27 -37 10 -10 17 -23 17 -29 0
-6 3 -13 8 -15 12 -5 64 -78 55 -78 -4 0 -3 -4 4 -8 6 -4 49 -55 95 -113 183
-233 262 -311 397 -393 109 -66 283 -128 401 -143 63 -8 204 -9 245 -2 22 4
57 10 78 13 104 16 242 75 359 153 58 39 228 201 228 218 0 4 11 21 24 38 38
52 102 186 122 257 49 180 52 357 8 520 -8 30 -17 63 -19 73 -2 11 -23 58 -46
105 -60 125 -87 161 -224 297 -50 50 -117 131 -151 180 -56 83 -74 116 -116
215 -14 32 -128 362 -133 385 -1 5 -5 17 -8 25 -10 23 -58 173 -62 192 -2 9
-8 25 -14 36 -5 10 -12 30 -15 43 -4 21 -143 429 -195 574 -10 28 -24 66 -31
85 -6 19 -15 44 -20 55 -16 37 -84 220 -86 230 -2 6 -48 123 -104 260 -56 138
-110 273 -120 300 -10 28 -28 75 -40 105 -12 30 -35 93 -51 140 -16 47 -34 94
-39 105 -8 18 -107 304 -114 330 -2 6 -6 17 -9 25 -3 8 -11 33 -17 55 -6 22
-15 49 -20 60 -8 18 -119 356 -125 380 -1 6 -5 17 -8 25 -7 18 -30 92 -33 103
-1 4 -3 9 -4 12 -1 3 -3 8 -4 13 -3 10 -85 268 -103 322 -8 25 -16 50 -17 55
-10 44 -60 193 -68 203 -6 6 -8 12 -5 12 3 0 -23 84 -59 188 -35 103 -66 194
-68 203 -11 43 -94 203 -143 276 -52 78 -60 85 -175 155 -66 40 -133 80 -147
88 -14 8 -44 26 -66 40 -22 14 -48 30 -57 35 -10 6 -49 29 -88 53 -39 23 -85
45 -103 48 -46 8 -261 17 -267 11z"/>
</g>
</svg>
