<?xml version="1.0" encoding="utf-8"?>
<!-- Generator: Adobe Illustrator 24.1.2, SVG Export Plug-In . SVG Version: 6.00 Build 0)  -->
<!DOCTYPE svg PUBLIC "-//W3C//DTD SVG 1.1//EN" "http://www.w3.org/Graphics/SVG/1.1/DTD/svg11.dtd" [
	<!ENTITY ns_extend "http://ns.adobe.com/Extensibility/1.0/">
	<!ENTITY ns_ai "http://ns.adobe.com/AdobeIllustrator/10.0/">
	<!ENTITY ns_graphs "http://ns.adobe.com/Graphs/1.0/">
	<!ENTITY ns_vars "http://ns.adobe.com/Variables/1.0/">
	<!ENTITY ns_imrep "http://ns.adobe.com/ImageReplacement/1.0/">
	<!ENTITY ns_sfw "http://ns.adobe.com/SaveForWeb/1.0/">
	<!ENTITY ns_custom "http://ns.adobe.com/GenericCustomNamespace/1.0/">
	<!ENTITY ns_adobe_xpath "http://ns.adobe.com/XPath/1.0/">
]>
<svg version="1.1" xmlns:x="&ns_extend;" xmlns:i="&ns_ai;" xmlns:graph="&ns_graphs;"
	 xmlns="http://www.w3.org/2000/svg" xmlns:xlink="http://www.w3.org/1999/xlink" x="0px" y="0px" viewBox="0 0 231.1 228.1"
	 style="enable-background:new 0 0 231.1 228.1;" xml:space="preserve">
<style type="text/css">
	.st0{fill:#98E35D;}
	.st1{fill:#16B157;}
</style>
<metadata>
	<sfw  xmlns="&ns_sfw;">
		<slices></slices>
		<sliceSourceBounds  bottomLeftOrigin="true" height="228.1" width="231.1" x="168" y="-781.1"></sliceSourceBounds>
	</sfw>
</metadata>
<g id="Ebene_1">
</g>
<g id="svg446">
	<g>
		<path class="st0" d="M227.6,1.3c-0.8-0.3-86-12-170.3,42.3C4.9,77.3-2,126.6,0.4,159.5C122.9,145.8,224.8,5.1,227.6,1.3
			 M8.7,195.9c10.5,18.5,90.1,60.5,160.6,2.6S233.9,35.1,227.6,1.3C225.3,6.2,148.4,174.7,8.7,195.9"/>
		<path class="st1" d="M227.6,1.3c-0.8-0.3-86-12-170.3,42.3C4.9,77.3-2,126.6,0.4,159.5C122.9,145.8,224.8,5.1,227.6,1.3"/>
	</g>
</g>
</svg>
