<svg xmlns="http://www.w3.org/2000/svg">
  <symbol id="large">
    <path fill-rule="evenodd" clip-rule="evenodd" d="M17.1502 12.3382V4.7832H9.59521L17.1502 12.3382Z" fill="currentColor"/>
    <path fill-rule="evenodd" clip-rule="evenodd" d="M9.1001 12.8333V5.27832L16.6551 12.8333H9.1001Z" fill="currentColor"/>
    <path fill-rule="evenodd" clip-rule="evenodd" d="M25.9002 29.8382V13.5332H9.59521L25.9002 29.8382Z" fill="currentColor"/>
    <path fill-rule="evenodd" clip-rule="evenodd" d="M9.1001 14.0283V30.3333H25.4051L9.1001 14.0283Z" fill="currentColor"/>
    <path d="M41.0923 16.5H46.0701C47.2196 16.5 48.0726 16.1853 48.6292 15.5559C49.1909 14.9214 49.4718 14.1021 49.4718 13.0983C49.4718 12.5573 49.3392 12.0606 49.0739 11.608C48.8138 11.1503 48.4211 10.8122 47.8958 10.5938C48.2287 10.3909 48.4888 10.1048 48.676 9.73552C48.8633 9.36622 48.9569 8.9267 48.9569 8.41696C48.9569 7.92282 48.8425 7.43389 48.6136 6.95015C48.3847 6.46642 48.0232 6.06591 47.5291 5.74862C47.035 5.42613 46.3874 5.26488 45.5863 5.26488H41.0923V16.5ZM43.2457 9.6497V7.24663H45.5551C45.9609 7.24663 46.2703 7.36367 46.4836 7.59773C46.6969 7.8318 46.8035 8.12048 46.8035 8.46377C46.8035 8.87469 46.6839 9.17637 46.4446 9.36882C46.2105 9.55607 45.914 9.6497 45.5551 9.6497H43.2457ZM43.2457 14.5026V11.6314H45.8516C46.3458 11.6314 46.7151 11.7641 46.9595 12.0294C47.2092 12.2894 47.334 12.6197 47.334 13.0202C47.334 13.4728 47.1936 13.8343 46.9127 14.1047C46.637 14.37 46.2833 14.5026 45.8516 14.5026H43.2457ZM51.1839 16.5H53.3061V5.26488H51.1839V16.5ZM58.2511 16.5H60.3733V7.24663H63.9155V5.26488H54.7089V7.24663H58.2511V16.5ZM69.991 16.7341C71.281 16.7341 72.3629 16.4142 73.2367 15.7744C74.1158 15.1346 74.7347 14.2686 75.0936 13.1763L72.9559 12.5833C72.7478 13.2595 72.3967 13.7874 71.9026 14.1672C71.4084 14.5469 70.7712 14.7367 69.991 14.7367C68.9247 14.7367 68.1211 14.3882 67.5802 13.6912C67.0444 12.989 66.7765 12.0528 66.7765 10.8824C66.7765 9.71212 67.0444 8.77846 67.5802 8.08147C68.1211 7.37927 68.9247 7.02817 69.991 7.02817C70.7712 7.02817 71.4084 7.21803 71.9026 7.59773C72.3967 7.97224 72.7478 8.50018 72.9559 9.18157L75.0936 8.58861C74.7347 7.4963 74.1158 6.63026 73.2367 5.99048C72.3629 5.35071 71.281 5.03082 69.991 5.03082C68.8675 5.03082 67.8974 5.27529 67.0808 5.76422C66.2694 6.25316 65.6426 6.93715 65.2005 7.81619C64.7636 8.69524 64.5451 9.71732 64.5451 10.8824C64.5451 12.0476 64.7636 13.0696 65.2005 13.9487C65.6426 14.8277 66.2694 15.5117 67.0808 16.0007C67.8974 16.4896 68.8675 16.7341 69.991 16.7341ZM81.6333 16.7341C82.7568 16.7341 83.7243 16.4896 84.5357 16.0007C85.3524 15.5117 85.9791 14.8277 86.416 13.9487C86.8582 13.0696 87.0792 12.0476 87.0792 10.8824C87.0792 9.71732 86.8582 8.69524 86.416 7.81619C85.9791 6.93715 85.3524 6.25316 84.5357 5.76422C83.7243 5.27529 82.7568 5.03082 81.6333 5.03082C80.5098 5.03082 79.5397 5.27529 78.7231 5.76422C77.9117 6.25316 77.2849 6.93715 76.8428 7.81619C76.4059 8.69524 76.1874 9.71732 76.1874 10.8824C76.1874 12.0476 76.4059 13.0696 76.8428 13.9487C77.2849 14.8277 77.9117 15.5117 78.7231 16.0007C79.5397 16.4896 80.5098 16.7341 81.6333 16.7341ZM81.6333 14.7367C80.567 14.7211 79.766 14.3674 79.2303 13.6756C78.6997 12.9838 78.4344 12.0528 78.4344 10.8824C78.4344 9.71212 78.6997 8.77326 79.2303 8.06586C79.766 7.35846 80.567 7.01257 81.6333 7.02817C82.7048 7.04378 83.5058 7.39748 84.0364 8.08927C84.5669 8.78106 84.8322 9.71212 84.8322 10.8824C84.8322 12.0528 84.5669 12.9916 84.0364 13.699C83.5058 14.4064 82.7048 14.7523 81.6333 14.7367ZM88.7928 16.5H90.915V5.26488H88.7928V16.5ZM93.254 16.5H95.4074V9.00992L100.292 16.5H102.445V5.26488H100.292V12.755L95.4074 5.26488H93.254V16.5ZM41.0923 30.5H44.4394C44.5591 30.5 44.7671 30.4974 45.0636 30.4922C45.3653 30.4818 45.6488 30.4584 45.914 30.422C46.7567 30.3023 47.4563 29.9877 48.0128 29.4779C48.5694 28.963 48.9855 28.3076 49.2612 27.5118C49.5368 26.716 49.6747 25.8395 49.6747 24.8824C49.6747 23.9254 49.5368 23.0489 49.2612 22.2531C48.9855 21.4573 48.5694 20.8019 48.0128 20.287C47.4563 19.772 46.7567 19.4573 45.914 19.3429C45.6436 19.3013 45.3601 19.2779 45.0636 19.2727C44.7723 19.2675 44.5643 19.2649 44.4394 19.2649H41.0923V30.5ZM42.0364 29.6184V20.1465H44.4394C44.6579 20.1465 44.8946 20.1543 45.1494 20.1699C45.4095 20.1803 45.628 20.2011 45.8048 20.2324C46.5018 20.352 47.0636 20.6277 47.4901 21.0594C47.9166 21.4859 48.2261 22.0295 48.4185 22.69C48.6162 23.3454 48.715 24.0762 48.715 24.8824C48.715 25.6835 48.6162 26.4143 48.4185 27.0749C48.2261 27.7302 47.9166 28.2738 47.4901 28.7055C47.0636 29.132 46.5018 29.4077 45.8048 29.5325C45.628 29.5637 45.4147 29.5871 45.165 29.6028C44.9154 29.6132 44.6735 29.6184 44.4394 29.6184H42.0364ZM51.4088 30.5H58.3528V29.6262H52.3061V25.2804H57.4165V24.4065H52.3061V20.1387H58.3528V19.2649H51.4088V30.5ZM63.1968 30.5H64.3125L68.2916 19.2649H67.3398L63.743 29.3765L60.1696 19.2649H59.2177L63.1968 30.5ZM72.5905 30.5H73.4877V24.7576L79.2847 30.5H80.4863L74.6425 24.664L80.0182 19.2649H78.8322L73.4877 24.6016V19.2649H72.5905V30.5ZM81.7373 30.5H82.6346V19.2649H81.7373V30.5ZM88.0691 30.5H88.9664V20.1387H92.9923V19.2649H84.0432V20.1387H88.0691V30.5Z" fill="currentColor"/>
  </symbol>
  <symbol id="small">
    <path fill-rule="evenodd" clip-rule="evenodd" d="M17.1502 12.3382V4.7832H9.59521L17.1502 12.3382Z" fill="currentColor"/>
    <path fill-rule="evenodd" clip-rule="evenodd" d="M9.1001 12.8333V5.27832L16.6551 12.8333H9.1001Z" fill="currentColor"/>
    <path fill-rule="evenodd" clip-rule="evenodd" d="M25.9002 29.8382V13.5332H9.59521L25.9002 29.8382Z" fill="currentColor"/>
    <path fill-rule="evenodd" clip-rule="evenodd" d="M9.1001 14.0283V30.3333H25.4051L9.1001 14.0283Z" fill="currentColor"/>
    <path d="M41.68 27H49.336C51.104 27 52.416 26.516 53.272 25.548C54.136 24.572 54.568 23.312 54.568 21.768C54.568 20.936 54.364 20.172 53.956 19.476C53.556 18.772 52.952 18.252 52.144 17.916C52.656 17.604 53.056 17.164 53.344 16.596C53.632 16.028 53.776 15.352 53.776 14.568C53.776 13.808 53.6 13.056 53.248 12.312C52.896 11.568 52.34 10.952 51.58 10.464C50.82 9.968 49.824 9.72 48.592 9.72H41.68V27ZM44.992 16.464V12.768H48.544C49.168 12.768 49.644 12.948 49.972 13.308C50.3 13.668 50.464 14.112 50.464 14.64C50.464 15.272 50.28 15.736 49.912 16.032C49.552 16.32 49.096 16.464 48.544 16.464H44.992ZM44.992 23.928V19.512H49C49.76 19.512 50.328 19.716 50.704 20.124C51.088 20.524 51.28 21.032 51.28 21.648C51.28 22.344 51.064 22.9 50.632 23.316C50.208 23.724 49.664 23.928 49 23.928H44.992ZM56.9613 27H62.5533C62.6893 27 62.9693 26.996 63.3933 26.988C63.8173 26.98 64.2253 26.952 64.6173 26.904C66.0093 26.736 67.1893 26.252 68.1573 25.452C69.1253 24.652 69.8613 23.636 70.3653 22.404C70.8693 21.172 71.1213 19.824 71.1213 18.36C71.1213 16.896 70.8693 15.548 70.3653 14.316C69.8613 13.084 69.1253 12.068 68.1573 11.268C67.1893 10.468 66.0093 9.984 64.6173 9.816C64.2253 9.768 63.8173 9.74 63.3933 9.732C62.9693 9.724 62.6893 9.72 62.5533 9.72H56.9613V27ZM60.2733 23.928V12.792H62.5533C62.7693 12.792 63.0613 12.796 63.4293 12.804C63.7973 12.812 64.1293 12.848 64.4253 12.912C65.1533 13.056 65.7573 13.396 66.2373 13.932C66.7173 14.468 67.0733 15.124 67.3053 15.9C67.5453 16.676 67.6653 17.496 67.6653 18.36C67.6653 19.184 67.5493 19.984 67.3173 20.76C67.0933 21.536 66.7413 22.2 66.2613 22.752C65.7893 23.304 65.1773 23.656 64.4253 23.808C64.1293 23.864 63.7973 23.9 63.4293 23.916C63.0613 23.924 62.7693 23.928 62.5533 23.928H60.2733ZM74.0003 27H77.2643V19.128L84.1523 27H88.2803L80.6003 18.24L87.8243 9.72H83.8403L77.2643 17.688V9.72H74.0003V27Z" fill="currentColor"/>
  </symbol>
</svg>
