<svg width="1149" height="352" fill="none" xmlns="http://www.w3.org/2000/svg"><rect width="352" height="352" rx="58.129" fill="#fff9f6"/><path d="M151.803 45.102c11.17-1.199 21.088 5.354 24.184 16.023.545 1.881.82 3.895.882 5.86.134 4.204.048 8.415.048 12.623 0 .387-.33.694-.718.708-3.075.113-6.08-.02-9.02-.99-9.212-3.034-15.33-11.474-15.427-21.35-.042-4.006-.01-8.015-.007-12.02m53.556 17.894c-.002 0-.003.002-.003.004.987 8.745-5.26 16.204-13.69 16.455-4.768.142-9.146-3.935-7.14-8.26.955-2.059 2.424-3.882 4.472-5.447 2.306-1.763 4.935-2.693 7.825-2.74 2.828-.047 5.66-.012 8.536-.012z" fill="#05a85a"/><path fill-rule="evenodd" clip-rule="evenodd" d="M276.034 155.31c0 49.726-43.638 96.867-97.468 96.867-19.525 0-37.708-6.202-52.955-16.479v49.48c0 12.292-9.965 22.257-22.257 22.257-12.292 0-22.256-9.965-22.256-22.257V157.011h.016a87.717 87.717 0 0 1-.017-1.702c0-43.022 32.666-72.025 76.335-68.636a274.327 274.327 0 0 0 42.267 0c43.67-3.389 76.335 25.614 76.335 68.636zm-150.423 8.104v-.384c.101-24.097 19.36-39.923 44.444-36.167a52.331 52.331 0 0 0 15.486 0c25.151-3.766 44.445 12.154 44.445 36.36 0 26.635-23.365 51.887-52.188 51.887-28.753 0-52.075-25.13-52.187-51.696z" fill="url(#a)" style="fill:url(#a)"/><path d="M483.685 105.655c7.8 0 13.742-1.765 17.827-5.293 4.271-3.713 6.406-9.284 6.406-16.712 0-7.056-2.228-12.44-6.685-16.155-4.27-3.899-10.584-5.849-18.94-5.849-2.97 0-5.478.093-7.52.278-1.858 0-3.807.186-5.85.557v43.174zm-14.483 89.41c-2.043.557-5.293 1.114-9.749 1.671a98.98 98.98 0 0 1-12.813.836c-4.27 0-8.077-.372-11.42-1.115-3.157-.557-5.849-1.67-8.077-3.342-2.229-1.67-3.9-3.992-5.014-6.963-1.114-2.97-1.67-6.87-1.67-11.699V43.263c0-3.9 1.02-6.87 3.063-8.914 2.228-2.228 5.2-3.992 8.913-5.292 6.313-2.228 13.462-3.807 21.447-4.735a181.231 181.231 0 0 1 24.511-1.67c25.626 0 45.216 5.477 58.771 16.432 13.556 10.956 20.334 25.811 20.334 44.566 0 9.1-1.486 17.362-4.457 24.79-2.785 7.242-7.056 13.555-12.813 18.94-5.57 5.2-12.719 9.285-21.447 12.256-8.542 2.785-18.476 4.178-29.803 4.178h-19.776zm176.983 5.57c-10.955 0-21.168-1.485-30.639-4.456-9.284-3.157-17.455-7.799-24.51-13.927-6.87-6.128-12.349-13.834-16.434-23.118-3.9-9.285-5.85-20.148-5.85-32.589 0-12.256 1.95-22.747 5.85-31.475 4.085-8.913 9.377-16.155 15.876-21.726 6.5-5.756 13.927-9.934 22.283-12.534 8.356-2.785 16.898-4.178 25.625-4.178 9.842 0 18.755 1.486 26.74 4.457 8.17 2.971 15.134 7.056 20.89 12.255 5.942 5.2 10.492 11.42 13.648 18.662 3.343 7.242 5.014 15.134 5.014 23.676 0 6.313-1.764 11.141-5.292 14.484-3.528 3.342-8.449 5.478-14.763 6.406l-68.798 10.306c2.042 6.128 6.221 10.77 12.534 13.927 6.314 2.971 13.555 4.456 21.726 4.456 7.613 0 14.762-.928 21.447-2.785 6.871-2.043 12.441-4.364 16.712-6.963 2.971 1.856 5.478 4.456 7.521 7.8 2.042 3.341 3.064 6.87 3.064 10.583 0 8.356-3.9 14.577-11.699 18.662-5.942 3.157-12.627 5.292-20.054 6.406-7.428 1.114-14.39 1.671-20.89 1.671zm-7.799-109.464c-4.456 0-8.356.742-11.698 2.228-3.157 1.485-5.757 3.435-7.799 5.85-2.043 2.227-3.62 4.827-4.735 7.798a33.867 33.867 0 0 0-1.672 8.635l47.63-7.799c-.557-3.714-2.6-7.428-6.128-11.142-3.528-3.713-8.727-5.57-15.598-5.57zm147.02 74.926c3.156 0 6.592-.279 10.306-.836 3.9-.742 6.777-1.67 8.634-2.785v-22.283l-20.054 1.671c-5.2.372-9.47 1.486-12.813 3.343s-5.014 4.642-5.014 8.356c0 3.714 1.393 6.778 4.178 9.191 2.971 2.23 7.892 3.343 14.763 3.343zm-2.229-109.465c10.028 0 19.127 1.021 27.297 3.064 8.356 2.043 15.412 5.2 21.17 9.47 5.941 4.085 10.49 9.378 13.647 15.877 3.157 6.313 4.735 13.834 4.735 22.561v62.392c0 4.828-1.392 8.821-4.178 11.978-2.6 2.971-5.756 5.57-9.47 7.8-12.07 7.24-29.06 10.861-50.972 10.861-9.842 0-18.755-.928-26.74-2.785-7.799-1.857-14.577-4.642-20.333-8.356-5.57-3.714-9.934-8.449-13.09-14.205-2.972-5.757-4.458-12.442-4.458-20.055 0-12.813 3.807-22.654 11.42-29.525 7.614-6.87 19.405-11.14 35.374-12.813l36.49-3.899v-1.95c0-5.385-2.415-9.192-7.243-11.42-4.643-2.414-11.42-3.62-20.333-3.62-7.057 0-13.927.742-20.612 2.228-6.685 1.485-12.72 3.342-18.105 5.57-2.414-1.67-4.457-4.178-6.128-7.52-1.67-3.528-2.507-7.149-2.507-10.863 0-4.828 1.115-8.635 3.343-11.42 2.414-2.97 6.035-5.478 10.863-7.52 5.385-2.043 11.698-3.529 18.94-4.457 7.428-.929 14.391-1.393 20.89-1.393zm172.119 37.324c-4.64 0-9.1.743-13.37 2.228a31.36 31.36 0 0 0-10.86 6.685c-2.97 2.786-5.39 6.314-7.24 10.585-1.86 4.27-2.79 9.284-2.79 15.041 0 11.512 3.25 20.147 9.75 25.903 6.69 5.757 14.76 8.635 24.23 8.635 5.57 0 10.4-.65 14.49-1.95 4.08-1.3 7.7-2.692 10.86-4.178 3.71 2.6 6.5 5.478 8.36 8.635 1.85 2.971 2.78 6.592 2.78 10.863 0 7.613-3.62 13.555-10.86 17.826-7.24 4.085-17.27 6.128-30.08 6.128-11.7 0-22.29-1.67-31.76-5.014-9.47-3.528-17.637-8.356-24.508-14.484-6.685-6.313-11.884-13.834-15.598-22.56-3.714-8.729-5.57-18.385-5.57-28.969 0-12.255 1.95-22.933 5.85-32.032 4.084-9.284 9.562-16.897 16.432-22.84 6.871-5.942 14.764-10.398 23.674-13.369 9.1-2.97 18.66-4.457 28.69-4.457 13.37 0 23.68 2.414 30.92 7.242 7.24 4.828 10.86 11.05 10.86 18.662 0 3.528-.83 6.871-2.51 10.027-1.67 2.971-3.62 5.571-5.84 7.8-3.16-1.486-6.97-2.879-11.42-4.179-4.46-1.485-9.29-2.228-14.49-2.228zm193.66 101.944c-1.86.557-4.83 1.114-8.92 1.672-3.9.557-7.98.835-12.25.835-4.09 0-7.8-.278-11.14-.835-3.16-.558-5.85-1.672-8.08-3.343-2.23-1.67-3.99-3.899-5.29-6.685-1.12-2.97-1.67-6.777-1.67-11.42V114.29c0-7.613-1.95-12.905-5.85-15.876-3.72-3.157-8.36-4.736-13.93-4.736-3.71 0-7.24.465-10.59 1.393-3.34.93-6.03 2.043-8.07 3.343V195.9c-1.86.557-4.83 1.114-8.92 1.672-3.9.557-7.98.835-12.25.835-4.09 0-7.8-.278-11.14-.835-3.16-.558-5.85-1.672-8.08-3.343-2.23-1.67-3.99-3.899-5.29-6.685-1.12-2.97-1.67-6.777-1.67-11.42V14.574c2.04-.372 5.01-.837 8.91-1.394a68.389 68.389 0 0 1 12.25-1.114c4.09 0 7.71.28 10.87.836 3.34.557 6.13 1.671 8.35 3.342 2.23 1.672 3.9 3.993 5.02 6.964 1.3 2.785 1.95 6.5 1.95 11.141v27.297c2.41-.929 6.03-1.95 10.86-3.064 5.01-1.3 10.49-1.95 16.43-1.95 18.39 0 32.69 4.642 42.9 13.927 10.4 9.1 15.6 22.747 15.6 40.945z" fill="#fffcfa"/><path fill-rule="evenodd" clip-rule="evenodd" d="M454.008 329.14c23.717 6.068 47.736-8.742 53.65-33.078 5.911-24.338-8.52-48.99-32.236-55.058-23.71-6.067-47.729 8.745-53.638 33.084-5.916 24.335 8.517 48.984 32.224 55.052zm20.494-62c6.132 2.166 10.617 5.416 9.736 11.46-.638 4.425-3.028 6.567-6.2 7.318 4.356 2.328 6.574 5.9 4.461 12.088-2.62 7.687-8.849 8.336-17.13 6.728l-2.01 8.266-4.858-1.242 1.984-8.156a177.649 177.649 0 0 1-3.87-1.03l-1.99 8.193-4.853-1.242 2.01-8.282c-.453-.119-.91-.24-1.369-.364-.69-.185-1.387-.37-2.093-.553l-6.32-1.617 2.411-5.705s3.578.977 3.53.904c1.375.35 1.985-.57 2.226-1.184l3.176-13.067.348.088c.056.015.111.03.165.043a3.791 3.791 0 0 0-.505-.166l2.266-9.329c.06-1.059-.296-2.394-2.263-2.898.076-.053-3.528-.9-3.528-.9l1.292-5.324 6.698 1.716-.005.026c1.007.257 2.044.501 3.101.748l1.991-8.185 4.854 1.242-1.95 8.025c1.303.305 2.614.613 3.891.94l1.936-7.973 4.857 1.242zm-15.362 29.686c3.963 1.074 12.624 3.422 14.001-2.257 1.411-5.806-6.989-7.74-11.088-8.684a56.084 56.084 0 0 1-1.193-.283l-2.667 10.972c.271.07.59.155.947.252zm3.737-16.033c3.304.905 10.511 2.88 11.766-2.282 1.282-5.279-5.723-6.87-9.144-7.648-.384-.087-.724-.164-1-.235l-2.419 9.951c.228.06.496.132.797.214z" fill="#fffcfa"/><path d="M550.181 267.13c3.59 0 6.691.66 9.298 1.956 2.618 1.31 4.78 3.072 6.512 5.29 1.71 2.228 2.983 4.833 3.805 7.82.816 2.993 1.225 6.211 1.225 9.656 0 5.292-.945 10.292-2.852 15.005-1.908 4.72-4.496 8.815-7.788 12.307-3.29 3.488-7.174 6.237-11.654 8.27-4.472 2.032-9.334 3.048-14.555 3.048-.675 0-1.862-.02-3.539-.055-1.676-.036-3.603-.213-5.76-.513a66.13 66.13 0 0 1-6.894-1.387 33.896 33.896 0 0 1-6.893-2.528l19.383-83.58 17.361-2.76-6.94 29.66a26.505 26.505 0 0 1 4.476-1.608c1.495-.382 3.1-.58 4.815-.58zm-14.562 49.22c2.614 0 5.078-.66 7.392-1.958 2.322-1.297 4.325-3.049 6.003-5.23 1.678-2.193 3.006-4.66 3.974-7.419a25.884 25.884 0 0 0 1.458-8.63c0-3.678-.599-6.547-1.793-8.62-1.194-2.067-3.403-3.106-6.61-3.106-1.052 0-2.406.206-4.086.574-1.685.39-3.192 1.201-4.544 2.42l-7.39 31.498c.446.081.84.157 1.176.23.33.078.693.133 1.056.172.383.044.821.066 1.351.066l2.013.002zm53.406 12.532h-16.582l14.003-60.47h16.696zm8.07-67.837c-2.316 0-4.414-.707-6.276-2.124-1.877-1.408-2.807-3.576-2.807-6.498 0-1.607.318-3.114.95-4.537.64-1.419 1.477-2.64 2.525-3.68a12.383 12.383 0 0 1 3.638-2.475 10.873 10.873 0 0 1 4.432-.916c2.313 0 4.401.707 6.27 2.124 1.862 1.424 2.798 3.592 2.798 6.498a10.98 10.98 0 0 1-.953 4.545 11.957 11.957 0 0 1-2.518 3.681 12.136 12.136 0 0 1-3.638 2.467c-1.387.621-2.856.915-4.422.915zm20.579-7.699 17.368-2.76-4.265 17.824h18.6l-3.359 14.022H627.53l-4.925 21.152c-.453 1.763-.71 3.41-.782 4.94-.082 1.538.107 2.858.556 3.97.445 1.114 1.246 1.973 2.408 2.58 1.157.618 2.812.93 4.984.93 1.79 0 3.532-.176 5.217-.522a36.331 36.331 0 0 0 5.09-1.435l1.237 13.111c-2.24.843-4.667 1.57-7.282 2.18-2.618.618-5.718.916-9.3.916-5.153 0-9.146-.785-11.992-2.348-2.84-1.574-4.85-3.725-6.052-6.448-1.186-2.713-1.715-5.84-1.567-9.363.153-3.532.672-7.245 1.567-11.154zm30.973 51.388c0-5.208.821-10.12 2.463-14.718 1.64-4.602 4.001-8.627 7.065-12.08 3.053-3.437 6.773-6.16 11.151-8.159 4.358-1.987 9.237-2.99 14.614-2.99 3.365 0 6.371.327 9.016.981 2.656.66 5.06 1.514 7.232 2.584l-5.719 13.344a52.53 52.53 0 0 0-4.648-1.667c-1.604-.506-3.563-.75-5.88-.75-5.535 0-9.91 1.957-13.167 5.86-3.244 3.905-4.877 9.162-4.877 15.756 0 3.908.821 7.068 2.47 9.485 1.641 2.418 4.672 3.62 9.072 3.62 2.172 0 4.268-.233 6.275-.687 2.023-.46 3.808-1.039 5.381-1.723l1.238 13.68c-2.097.834-4.41 1.587-6.947 2.248-2.542.637-5.569.968-9.079.968-4.632 0-8.554-.696-11.762-2.066-3.209-1.39-5.86-3.238-7.95-5.577-2.1-2.345-3.608-5.084-4.54-8.227-.932-3.14-1.408-6.439-1.408-9.882zm73.661 25.752c-3.958 0-7.395-.619-10.31-1.844-2.909-1.225-5.318-2.945-7.222-5.173-1.908-2.218-3.336-4.845-4.314-7.873-.978-3.027-1.448-6.379-1.448-10.05 0-4.608.721-9.213 2.177-13.805 1.45-4.602 3.601-8.738 6.448-12.413 2.825-3.68 6.31-6.69 10.412-9.037 4.1-2.33 8.814-3.504 14.11-3.504 3.885 0 7.304.621 10.261 1.846 2.942 1.222 5.366 2.955 7.281 5.173 1.896 2.23 3.336 4.845 4.304 7.877.975 3.021 1.457 6.381 1.457 10.056 0 4.593-.71 9.198-2.122 13.805-1.413 4.583-3.509 8.73-6.275 12.412-2.76 3.676-6.214 6.684-10.36 9.021-4.143 2.336-8.946 3.51-14.399 3.51zm8.288-49.206c-2.459 0-4.632.732-6.492 2.18-1.868 1.463-3.437 3.302-4.7 5.521-1.279 2.23-2.227 4.66-2.867 7.301-.635 2.648-.946 5.15-.946 7.528 0 3.837.603 6.826 1.788 8.976 1.202 2.14 3.362 3.216 6.5 3.216 2.467 0 4.63-.727 6.501-2.189 1.856-1.453 3.426-3.294 4.7-5.517 1.27-2.217 2.226-4.655 2.867-7.3.626-2.64.946-5.157.946-7.53 0-3.828-.6-6.823-1.797-8.97-1.195-2.14-3.364-3.216-6.5-3.216zm42.937 47.602h-16.596l14.003-60.47h16.704zm8.056-67.837c-2.313 0-4.41-.707-6.269-2.124-1.867-1.408-2.805-3.576-2.805-6.498 0-1.607.322-3.114.954-4.537a12.012 12.012 0 0 1 2.523-3.68 12.371 12.371 0 0 1 3.641-2.475 10.8 10.8 0 0 1 4.418-.916c2.32 0 4.413.707 6.278 2.124 1.866 1.424 2.808 3.592 2.808 6.498 0 1.612-.335 3.126-.96 4.545a11.93 11.93 0 0 1-2.515 3.681 12.262 12.262 0 0 1-3.638 2.467c-1.389.621-2.86.915-4.435.915zm18.006 10.116c1.26-.377 2.664-.832 4.193-1.326a54.57 54.57 0 0 1 5.163-1.368c1.893-.427 4.031-.774 6.381-1.042 2.35-.274 5.028-.407 8.004-.407 8.745 0 14.774 2.613 18.102 7.824 3.326 5.212 3.901 12.344 1.743 21.384l-7.628 32.65h-16.69l7.392-31.963a69.663 69.663 0 0 0 1.066-5.81c.265-1.869.25-3.516-.059-4.94-.295-1.409-.989-2.562-2.067-3.455-1.094-.878-2.747-1.32-4.99-1.32-2.162 0-4.36.24-6.606.7l-10.869 46.787h-16.698z" fill="#fffcfa"/><defs><radialGradient id="a" cx="0" cy="0" r="1" gradientUnits="userSpaceOnUse" gradientTransform="matrix(-194.93512 221.03271 -249.97055 -220.45623 276.034 86.404)"><stop stop-color="#FFA24C"/><stop offset=".502" stop-color="#FF7A50"/><stop offset="1" stop-color="#FF4D42"/></radialGradient></defs></svg>
