<?xml version="1.0" encoding="UTF-8"?>
<svg width="192px" height="192px" viewBox="0 0 192 192" version="1.1" xmlns="http://www.w3.org/2000/svg" xmlns:xlink="http://www.w3.org/1999/xlink">
    <!-- Generator: Sketch 43.2 (39069) - http://www.bohemiancoding.com/sketch -->
    <title>safari-pinned-tab</title>
    <desc>Created with Sketch.</desc>
    <defs>
        <rect id="path-1" x="0" y="0" width="192" height="192"></rect>
    </defs>
    <g id="Page-1" stroke="none" stroke-width="1" fill="none" fill-rule="evenodd">
        <g id="Logo">
            <g id="BDK-Logo">
                <g id="Rectangle">
                    <use fill="#FFFFFF" fill-rule="evenodd" xlink:href="#path-1"></use>
                    <rect stroke="#FFFFFF" stroke-width="1" x="0.5" y="0.5" width="191" height="191"></rect>
                </g>
                <path d="M28.032,83.23584 L30.01344,83.23584 C32.2867314,83.23584 33.9148751,82.9440029 34.89792,82.36032 C35.8809649,81.7766371 36.37248,80.8396865 36.37248,79.54944 C36.37248,78.2591935 35.8809649,77.3222429 34.89792,76.73856 C33.9148751,76.1548771 32.2867314,75.86304 30.01344,75.86304 L28.032,75.86304 L28.032,83.23584 Z M28.032,69.13536 L29.69088,69.13536 C32.5171341,69.13536 33.93024,68.0140912 33.93024,65.77152 C33.93024,63.5289488 32.5171341,62.40768 29.69088,62.40768 L28.032,62.40768 L28.032,69.13536 Z M19.00032,55.49568 L32.45568,55.49568 C35.650576,55.49568 38.0774317,56.2636723 39.73632,57.79968 C41.3952083,59.3356877 42.22464,61.5475056 42.22464,64.4352 C42.22464,66.1862488 41.9097631,67.6377542 41.28,68.78976 C40.6502369,69.9417658 39.6902465,70.917116 38.4,71.71584 C39.6902465,71.9616012 40.7884755,72.3379175 41.69472,72.8448 C42.6009645,73.3516825 43.3382372,73.9737563 43.90656,74.71104 C44.4748828,75.4483237 44.8819188,76.2777554 45.12768,77.19936 C45.3734412,78.1209646 45.49632,79.1039948 45.49632,80.14848 C45.49632,81.7766481 45.2121628,83.2204737 44.64384,84.48 C44.0755172,85.7395263 43.2768051,86.7993557 42.24768,87.65952 C41.2185549,88.5196843 39.9667274,89.1647978 38.49216,89.59488 C37.0175926,90.0249622 35.3587292,90.24 33.51552,90.24 L19.00032,90.24 L19.00032,55.49568 Z M58.4448,66.60096 L58.4448,90.24 L50.10432,90.24 L50.10432,66.60096 L58.4448,66.60096 Z M49.55136,57.5232 C49.55136,56.8780768 49.6742388,56.2713628 49.92,55.70304 C50.1657612,55.1347172 50.5036778,54.6355222 50.93376,54.20544 C51.3638422,53.7753578 51.8630372,53.4374412 52.43136,53.19168 C52.9996828,52.9459188 53.6063968,52.82304 54.25152,52.82304 C54.8966432,52.82304 55.5033572,52.9459188 56.07168,53.19168 C56.6400028,53.4374412 57.1391978,53.7753578 57.56928,54.20544 C57.9993622,54.6355222 58.3372788,55.1347172 58.58304,55.70304 C58.8288012,56.2713628 58.95168,56.8780768 58.95168,57.5232 C58.95168,58.1683232 58.8288012,58.7750372 58.58304,59.34336 C58.3372788,59.9116828 57.9993622,60.4108778 57.56928,60.84096 C57.1391978,61.2710422 56.6400028,61.6089588 56.07168,61.85472 C55.5033572,62.1004812 54.8966432,62.22336 54.25152,62.22336 C53.6063968,62.22336 52.9996828,62.1004812 52.43136,61.85472 C51.8630372,61.6089588 51.3638422,61.2710422 50.93376,60.84096 C50.5036778,60.4108778 50.1657612,59.9116828 49.92,59.34336 C49.6742388,58.7750372 49.55136,58.1683232 49.55136,57.5232 Z M73.46688,73.55904 L73.46688,90.24 L65.1264,90.24 L65.1264,73.55904 L62.3616,73.55904 L62.3616,66.60096 L65.1264,66.60096 L65.1264,59.50464 L73.46688,59.50464 L73.46688,66.60096 L78.21312,66.60096 L78.21312,73.55904 L73.46688,73.55904 Z M99.17952,74.25024 C97.7356728,73.2671951 96.2764874,72.77568 94.80192,72.77568 C94.003196,72.77568 93.2582435,72.9139186 92.56704,73.1904 C91.8758365,73.4668814 91.2691226,73.8585575 90.74688,74.36544 C90.2246374,74.8723225 89.8176015,75.4713565 89.52576,76.16256 C89.2339185,76.8537635 89.088,77.6294357 89.088,78.4896 C89.088,79.3190441 89.2339185,80.0793565 89.52576,80.77056 C89.8176015,81.4617635 90.2169575,82.0607975 90.72384,82.56768 C91.2307225,83.0745625 91.8374365,83.4662386 92.544,83.74272 C93.2505635,84.0192014 94.003196,84.15744 94.80192,84.15744 C96.3686478,84.15744 97.8278332,83.6198454 99.17952,82.54464 L99.17952,89.64096 C97.1212697,90.5318445 95.1705692,90.97728 93.32736,90.97728 C91.6070314,90.97728 89.9712078,90.6854429 88.41984,90.10176 C86.8684722,89.5180771 85.5014459,88.6809655 84.31872,87.5904 C83.1359941,86.4998345 82.1913635,85.1942476 81.4848,83.6736 C80.7782365,82.1529524 80.42496,80.4556894 80.42496,78.58176 C80.42496,76.7078306 80.7628766,74.9952078 81.43872,73.44384 C82.1145634,71.8924722 83.0361542,70.5561656 84.20352,69.43488 C85.3708858,68.3135944 86.7609519,67.4380831 88.37376,66.80832 C89.9865681,66.1785569 91.7145508,65.86368 93.55776,65.86368 C95.5852901,65.86368 97.4591914,66.2937557 99.17952,67.15392 L99.17952,74.25024 Z M111.80544,78.30528 C111.80544,79.104004 111.951359,79.8335967 112.2432,80.49408 C112.535041,81.1545633 112.919038,81.7305575 113.3952,82.22208 C113.871362,82.7136025 114.439677,83.0975986 115.10016,83.37408 C115.760643,83.6505614 116.459516,83.7888 117.1968,83.7888 C117.934084,83.7888 118.632957,83.6505614 119.29344,83.37408 C119.953923,83.0975986 120.522238,82.7136025 120.9984,82.22208 C121.474562,81.7305575 121.858559,81.1545633 122.1504,80.49408 C122.442241,79.8335967 122.58816,79.1193638 122.58816,78.35136 C122.58816,77.6140763 122.442241,76.9152033 122.1504,76.25472 C121.858559,75.5942367 121.474562,75.0182425 120.9984,74.52672 C120.522238,74.0351975 119.953923,73.6512014 119.29344,73.37472 C118.632957,73.0982386 117.934084,72.96 117.1968,72.96 C116.459516,72.96 115.760643,73.0982386 115.10016,73.37472 C114.439677,73.6512014 113.871362,74.0351975 113.3952,74.52672 C112.919038,75.0182425 112.535041,75.5865568 112.2432,76.23168 C111.951359,76.8768032 111.80544,77.5679963 111.80544,78.30528 Z M103.00416,78.21312 C103.00416,76.4620712 103.357436,74.8262476 104.064,73.3056 C104.770564,71.7849524 105.753594,70.4640056 107.01312,69.34272 C108.272646,68.2214344 109.770231,67.3382432 111.50592,66.69312 C113.241609,66.0479968 115.13855,65.72544 117.1968,65.72544 C119.22433,65.72544 121.105911,66.0403169 122.8416,66.67008 C124.577289,67.2998431 126.082554,68.1753544 127.35744,69.29664 C128.632326,70.4179256 129.623036,71.7542322 130.3296,73.3056 C131.036164,74.8569678 131.38944,76.5695906 131.38944,78.44352 C131.38944,80.3174494 131.028484,82.0300722 130.30656,83.58144 C129.584636,85.1328078 128.593926,86.4691144 127.3344,87.5904 C126.074874,88.7116856 124.561929,89.5795169 122.79552,90.19392 C121.029111,90.8083231 119.11681,91.11552 117.05856,91.11552 C115.03103,91.11552 113.157129,90.8083231 111.4368,90.19392 C109.716471,89.5795169 108.234246,88.7040057 106.99008,87.56736 C105.745914,86.4307143 104.770564,85.0713679 104.064,83.48928 C103.357436,81.9071921 103.00416,80.1484897 103.00416,78.21312 Z M144.52224,66.60096 L144.52224,90.24 L136.18176,90.24 L136.18176,66.60096 L144.52224,66.60096 Z M135.6288,57.5232 C135.6288,56.8780768 135.751679,56.2713628 135.99744,55.70304 C136.243201,55.1347172 136.581118,54.6355222 137.0112,54.20544 C137.441282,53.7753578 137.940477,53.4374412 138.5088,53.19168 C139.077123,52.9459188 139.683837,52.82304 140.32896,52.82304 C140.974083,52.82304 141.580797,52.9459188 142.14912,53.19168 C142.717443,53.4374412 143.216638,53.7753578 143.64672,54.20544 C144.076802,54.6355222 144.414719,55.1347172 144.66048,55.70304 C144.906241,56.2713628 145.02912,56.8780768 145.02912,57.5232 C145.02912,58.1683232 144.906241,58.7750372 144.66048,59.34336 C144.414719,59.9116828 144.076802,60.4108778 143.64672,60.84096 C143.216638,61.2710422 142.717443,61.6089588 142.14912,61.85472 C141.580797,62.1004812 140.974083,62.22336 140.32896,62.22336 C139.683837,62.22336 139.077123,62.1004812 138.5088,61.85472 C137.940477,61.6089588 137.441282,61.2710422 137.0112,60.84096 C136.581118,60.4108778 136.243201,59.9116828 135.99744,59.34336 C135.751679,58.7750372 135.6288,58.1683232 135.6288,57.5232 Z M150.23616,66.60096 L158.57664,66.60096 L158.57664,69.59616 C159.713286,68.2137531 160.865274,67.2844824 162.03264,66.80832 C163.200006,66.3321576 164.567032,66.09408 166.13376,66.09408 C167.792648,66.09408 169.213434,66.3628773 170.39616,66.90048 C171.578886,67.4380827 172.584956,68.1983951 173.4144,69.18144 C174.090243,69.980164 174.551039,70.8710351 174.7968,71.85408 C175.042561,72.8371249 175.16544,73.9583937 175.16544,75.21792 L175.16544,90.24 L166.82496,90.24 L166.82496,78.30528 C166.82496,77.1379142 166.740481,76.1932836 166.57152,75.47136 C166.402559,74.7494364 166.103042,74.1734422 165.67296,73.74336 C165.304318,73.3747182 164.889602,73.1136008 164.4288,72.96 C163.967998,72.8063992 163.476483,72.7296 162.95424,72.7296 C161.541113,72.7296 160.458244,73.1519958 159.7056,73.9968 C158.952956,74.8416042 158.57664,76.0473522 158.57664,77.61408 L158.57664,90.24 L150.23616,90.24 L150.23616,66.60096 Z M28.032,124.83072 L30.1056,124.83072 C31.6723278,124.83072 33.0700739,124.584962 34.29888,124.09344 C35.5276861,123.601918 36.5644758,122.926084 37.40928,122.06592 C38.2540842,121.205756 38.8991978,120.184326 39.34464,119.0016 C39.7900822,117.818874 40.0128,116.520967 40.0128,115.10784 C40.0128,113.725433 39.7824023,112.435206 39.3216,111.23712 C38.8607977,110.039034 38.2080042,109.009924 37.3632,108.14976 C36.5183958,107.289596 35.4816061,106.613762 34.2528,106.12224 C33.0239939,105.630718 31.6416077,105.38496 30.1056,105.38496 L28.032,105.38496 L28.032,124.83072 Z M19.00032,97.73568 L32.36352,97.73568 C34.7289718,97.73568 36.9484696,98.2118352 39.02208,99.16416 C41.0956904,100.116485 42.9081522,101.383672 44.45952,102.96576 C46.0108878,104.547848 47.2319955,106.391029 48.12288,108.49536 C49.0137645,110.599691 49.4592,112.803828 49.4592,115.10784 C49.4592,117.381131 49.0214444,119.569909 48.14592,121.67424 C47.2703956,123.778571 46.0569678,125.629432 44.5056,127.22688 C42.9542322,128.824328 41.1417704,130.099195 39.06816,131.05152 C36.9945496,132.003845 34.759692,132.48 32.36352,132.48 L19.00032,132.48 L19.00032,97.73568 Z M71.71584,117.22752 C71.4393586,116.060154 70.8710443,115.123204 70.01088,114.41664 C69.1507157,113.710076 68.1062461,113.3568 66.87744,113.3568 C65.5871935,113.3568 64.5350441,113.694717 63.72096,114.37056 C62.9068759,115.046403 62.3923211,115.998714 62.17728,117.22752 L71.71584,117.22752 Z M61.94688,122.06592 C61.94688,125.660178 63.6364631,127.45728 67.01568,127.45728 C68.8281691,127.45728 70.1951954,126.720007 71.1168,125.24544 L79.1808,125.24544 C77.5526319,130.652187 73.4822726,133.35552 66.9696,133.35552 C64.97279,133.35552 63.1449683,133.056003 61.48608,132.45696 C59.8271917,131.857917 58.4064059,131.005446 57.22368,129.89952 C56.0409541,128.793594 55.1270432,127.472648 54.48192,125.93664 C53.8367968,124.400632 53.51424,122.68033 53.51424,120.77568 C53.51424,118.80959 53.8214369,117.035528 54.43584,115.45344 C55.0502431,113.871352 55.9257543,112.527366 57.0624,111.42144 C58.1990457,110.315514 59.5737519,109.463043 61.18656,108.864 C62.7993681,108.264957 64.6195099,107.96544 66.64704,107.96544 C68.64385,107.96544 70.440952,108.264957 72.0384,108.864 C73.635848,109.463043 74.9875145,110.330874 76.09344,111.46752 C77.1993655,112.604166 78.0441571,113.994232 78.62784,115.63776 C79.2115229,117.281288 79.50336,119.13215 79.50336,121.1904 L79.50336,122.06592 L61.94688,122.06592 Z M89.68704,108.84096 L95.3088,120.96 L101.02272,108.84096 L110.33088,108.84096 L98.02752,132.48 L92.45184,132.48 L80.28672,108.84096 L89.68704,108.84096 Z M28.032,154.30656 L39.04512,139.97568 L50.19648,139.97568 L36.41856,156.42624 L51.48672,174.72 L39.7824,174.72 L28.032,159.65184 L28.032,174.72 L19.00032,174.72 L19.00032,139.97568 L28.032,139.97568 L28.032,154.30656 Z M63.0528,151.08096 L63.0528,174.72 L54.71232,174.72 L54.71232,151.08096 L63.0528,151.08096 Z M54.15936,142.0032 C54.15936,141.358077 54.2822388,140.751363 54.528,140.18304 C54.7737612,139.614717 55.1116778,139.115522 55.54176,138.68544 C55.9718422,138.255358 56.4710372,137.917441 57.03936,137.67168 C57.6076828,137.425919 58.2143968,137.30304 58.85952,137.30304 C59.5046432,137.30304 60.1113572,137.425919 60.67968,137.67168 C61.2480028,137.917441 61.7471978,138.255358 62.17728,138.68544 C62.6073622,139.115522 62.9452788,139.614717 63.19104,140.18304 C63.4368012,140.751363 63.55968,141.358077 63.55968,142.0032 C63.55968,142.648323 63.4368012,143.255037 63.19104,143.82336 C62.9452788,144.391683 62.6073622,144.890878 62.17728,145.32096 C61.7471978,145.751042 61.2480028,146.088959 60.67968,146.33472 C60.1113572,146.580481 59.5046432,146.70336 58.85952,146.70336 C58.2143968,146.70336 57.6076828,146.580481 57.03936,146.33472 C56.4710372,146.088959 55.9718422,145.751042 55.54176,145.32096 C55.1116778,144.890878 54.7737612,144.391683 54.528,143.82336 C54.2822388,143.255037 54.15936,142.648323 54.15936,142.0032 Z M78.07488,158.03904 L78.07488,174.72 L69.7344,174.72 L69.7344,158.03904 L66.9696,158.03904 L66.9696,151.08096 L69.7344,151.08096 L69.7344,143.98464 L78.07488,143.98464 L78.07488,151.08096 L82.82112,151.08096 L82.82112,158.03904 L78.07488,158.03904 Z" id="Bitcoin-Dev-Kit" fill="#13161F"></path>
            </g>
        </g>
    </g>
</svg>