<?xml version="1.0" encoding="UTF-8" standalone="no"?>
<svg
   version="1.2"
   viewBox="0 0 995 1194"
   width="120"
   height="144"
   id="svg4"
   sodipodi:docname="frostsnap-icon.svg"
   inkscape:version="1.4 (e7c3feb100, 2024-10-09)"
   xmlns:inkscape="http://www.inkscape.org/namespaces/inkscape"
   xmlns:sodipodi="http://sodipodi.sourceforge.net/DTD/sodipodi-0.dtd"
   xmlns="http://www.w3.org/2000/svg"
   xmlns:svg="http://www.w3.org/2000/svg">
  <defs
     id="defs4" />
  <sodipodi:namedview
     id="namedview4"
     pagecolor="#ffffff"
     bordercolor="#000000"
     borderopacity="0.25"
     inkscape:showpageshadow="2"
     inkscape:pageopacity="0.0"
     inkscape:pagecheckerboard="0"
     inkscape:deskcolor="#d1d1d1"
     inkscape:zoom="0.51666667"
     inkscape:cx="60"
     inkscape:cy="72.580645"
     inkscape:window-width="1920"
     inkscape:window-height="1080"
     inkscape:window-x="0"
     inkscape:window-y="0"
     inkscape:window-maximized="1"
     inkscape:current-layer="svg4" />
  <style
     id="style1">.a{fill:#010103}</style>
  <path
     id="path1"
     d="M 441.30452 149.99495 L 441.23975 150.83708 L 420.39722 150.39982 L 345.67505 630.00472 L 328.70304 627.70508 L 321.80412 665.89209 L 267.89209 625.00057 L 281.30127 526.50464 L 259.50326 509.09538 L 232.00472 519.70288 L 223.40535 583.20215 L 141.10409 524.205 L 105.10335 535.89754 L 101.99398 576.40039 L 176.10075 629.29215 L 175.09668 636.59595 L 117.3951 657.60042 L 112.60148 692.80762 L 144.00293 708.69458 L 204.89486 681.09888 L 236.39347 678.50773 L 280.0057 710.49219 L 278.69393 719.99845 L 225.80216 739.39966 L 224.89526 746.20142 L 274.69385 786.49373 L 218.59554 809.99219 L 200.10124 805.1014 L 138.20524 751.0922 L 103.09521 763.09245 L 98.204427 798.20247 L 149.99495 838.70532 L 59.09432 874.30119 L 53.993001 911.80802 L 87.30542 930.70719 L 180.5057 898.30168 L 171.90633 961.29891 L 195.79346 976.60286 L 214.20679 964.79696 L 232.99259 864.50342 L 297.5931 844.40584 L 291.00187 913.29793 L 356.49308 885.89657 L 347.60221 951.69548 L 264.29688 985.99577 L 259.60042 1021.1058 L 283.19604 1038.8066 L 339.00285 1015.0976 L 325.205 1116.1037 L 346.40381 1138.5009 L 357.80485 1140.007 L 384.20215 1124.1038 L 397.80566 1023.1949 L 445.30461 1060.7989 L 472.90031 1052.5072 L 478.00163 1015.0976 L 406.5022 959.79281 L 415.50643 893.89673 L 474.79508 933.20117 L 485.69409 869.99341 L 539.60612 910.90112 L 531.20109 1010.2068 L 547.99495 1026.9035 L 573.30721 1015.9073 L 581.79321 952.89388 L 660.4021 1011.0003 L 700.09521 999.69645 L 705.19653 962.30298 L 634.29631 902.30176 L 687.80347 878.49561 L 686.29736 837.79842 L 661.29281 826.99658 L 582.89445 859.49927 L 521.30615 820.00049 L 579.29924 796.69637 L 535.39551 750.29867 L 591.80151 722.20093 L 617.00041 732.5979 L 669.89217 780.19401 L 702.39486 770.70394 L 706.89697 737.89355 L 657.89193 694.89673 L 745.69938 664.09448 L 751.30273 623.89933 L 720.59766 602.99202 L 624.69287 637.79435 L 633.59993 572.09261 L 616.49837 557.59839 L 602.10132 558.50529 L 591.60718 566.29492 L 577.90649 667.20386 L 507.70264 691.20435 L 511.60555 652.59627 L 499.08708 650.89583 L 520.99845 511.24927 L 826.60791 515.20076 L 840.09806 366.09652 L 544.43213 361.8859 L 553.9384 301.31787 L 855.30485 305.20459 L 868.795 156.10034 L 441.30452 149.99495 z M 380.20207 712.50033 L 439.00488 720.50049 L 460.10653 778.29924 L 430.19499 819.80615 L 371.79704 811.80599 L 348.99495 767.80509 L 380.20207 712.50033 z " />
</svg>
