<svg width="202" height="36" viewBox="0 0 202 36" fill="none" xmlns="http://www.w3.org/2000/svg" class="fill-gray-900 w-10/12 xl:w-auto">
  <path d="M24.3957 22.2006H22.5138C19.4342 22.2316 17.1657 22.7342 15.5309 23.8573C18.3 17.1189 24.4908 13.8925 34.6482 13.6939C33.9702 17.9193 30.6182 22.1448 24.3957 22.2068V22.2006ZM13.8137 34.0579C13.9087 26.2585 15.7907 24.0931 22.5138 24.0124H22.5328C22.3997 30.6763 18.1669 33.5491 13.8137 34.0579ZM14.1812 13.787C17.2481 13.7559 19.5102 13.2596 21.1451 12.1365C18.3887 18.8625 12.2295 22.0889 2.11641 22.2999C2.93382 18.0558 5.96269 13.849 12.2992 13.787H14.1812ZM22.8559 1.92968C22.7672 9.72906 20.8853 11.8945 14.1749 11.9752H14.1558C14.2889 5.31127 18.5091 2.43847 22.8496 1.92968H22.8559ZM35.6811 11.8573C30.2063 11.8573 25.72 12.6701 22.1843 14.333C23.8824 11.0383 24.7189 6.88728 24.7189 1.83661V0L23.7494 0.0372285C18.4647 0.241986 12.4323 3.51189 12.2866 11.969C5.63953 12.031 0.855434 16.4116 0.114058 23.1251L0 24.1365H1.03286C6.48862 24.1365 10.9559 23.3237 14.479 21.6732C12.7808 24.9679 11.9444 29.1127 11.9444 34.1634V36L12.9139 35.9628C18.2049 35.758 24.2563 32.4881 24.402 24.031C31.1695 23.969 36.188 19.365 36.6062 12.8376L36.6696 11.8697H35.6811V11.8573Z"></path><path d="M53.4696 28.86C49.2096 28.86 46.4196 26.25 46.3296 23.07H48.6096C48.8496 25.59 51.3996 26.7 53.4396 26.7C55.8396 26.7 57.7896 25.38 57.7896 23.19C57.7896 21.33 56.6496 20.07 54.6996 19.32L51.5496 18.12C48.2496 16.86 46.8396 15.12 46.8396 12.21C46.8396 8.85 49.5396 6.84 53.1096 6.84C57.3396 6.84 59.2896 9.72 59.5896 12.39H57.3096C56.7396 10.02 54.9096 9 53.0196 9C50.8296 9 49.1196 10.23 49.1196 12.18C49.1196 14.13 50.1396 15.06 52.2996 15.9L55.1196 16.98C58.2996 18.21 60.0696 19.98 60.0696 23.13C60.0696 26.7 57.2796 28.86 53.4696 28.86ZM63.5724 28.5V7.2H75.7224V9.36H65.8524V16.47H73.9224V18.63H65.8524V26.34H75.7224V28.5H63.5724ZM79.2837 28.5V7.2H86.0037C90.0837 7.2 92.3637 9.78 92.3637 12.66C92.3637 14.91 91.3737 16.35 89.9337 17.19C92.0637 17.88 93.7737 19.32 93.7737 22.29C93.7737 25.86 90.9537 28.5 86.4837 28.5H79.2837ZM81.5637 16.5H86.1537C88.6737 16.5 90.1137 14.97 90.1137 12.9C90.1137 10.95 88.6737 9.27 86.1537 9.27H81.5637V16.5ZM81.5637 26.43H86.7237C89.9337 26.43 91.5237 24.78 91.5237 22.47C91.5237 20.19 89.9637 18.48 86.7537 18.48H81.5637V26.43ZM94.1986 28.5L103.679 7.2H105.509L115.019 28.5H112.619L109.679 21.87H99.4786L96.5386 28.5H94.1986ZM100.439 19.74H108.719L104.579 10.41L100.439 19.74ZM122.756 28.5V7.2H129.476C133.556 7.2 135.836 9.78 135.836 12.66C135.836 14.91 134.846 16.35 133.406 17.19C135.536 17.88 137.246 19.32 137.246 22.29C137.246 25.86 134.426 28.5 129.956 28.5H122.756ZM125.036 16.5H129.626C132.146 16.5 133.586 14.97 133.586 12.9C133.586 10.95 132.146 9.27 129.626 9.27H125.036V16.5ZM125.036 26.43H130.196C133.406 26.43 134.996 24.78 134.996 22.47C134.996 20.19 133.436 18.48 130.226 18.48H125.036V26.43ZM137.67 28.5L147.15 7.2H148.98L158.49 28.5H156.09L153.15 21.87H142.95L140.01 28.5H137.67ZM143.91 19.74H152.19L148.05 10.41L143.91 19.74ZM178.679 28.5H176.669L163.079 11.07V28.5H160.799V7.2H162.809L176.399 24.63V7.2H178.679V28.5ZM183.718 28.5V7.2H185.968V16.53L195.778 7.2H198.868L188.278 17.31L201.328 28.5H197.938L185.968 18.21V28.5H183.718Z"></path>
</svg>