<svg width="753" height="319" viewBox="0 0 753 319" fill="none" xmlns="http://www.w3.org/2000/svg">
<path d="M323.5 104.4H282.7V128.5H268.2V158H282.7V205.2C282.7 231.1 295.5 240.9 324 240.9C332.7 240.9 338.4 240.2 342.8 239.4V210.9C340.6 211.2 338.9 211.4 335.8 211.4C327.4 211.4 323.4 207.8 323.4 198.9V158H342.7V128.5H323.4V104.4H323.5Z" fill="white"/>
<path d="M397.9 148.3H397.1V128.6H356.3V238.6H397.1V183C397.1 167.7 405 159.9 420.3 159.9C424.5 159.9 428.7 160.7 432.2 162.2V127.8C429.1 126.7 425.8 126.2 422.3 126.2C409.2 126.2 400.7 133.9 397.9 148.3Z" fill="white"/>
<path d="M515.2 190.3C515.2 200.6 509.3 208 499.7 208C489.4 208 484.3 201.2 484.3 190.2V128.5H443.5V199.1C443.5 225.5 457 240.8 481.3 240.8C497.9 240.8 509.2 232.8 514.6 218H515.4V238.4H556.2V128.4H515.4V190.3H515.2Z" fill="white"/>
<path d="M639.8 172.1L619.9 168.4C609.9 166.5 607.1 164.3 607.1 160.4V160.3C607.1 155.6 612 152.8 619.5 152.8C628.3 152.8 633.1 157.7 633.7 162.9L633.8 163.8H670.9V163.1C670.9 143.1 653.6 126.1 619.5 126.1C587.5 126.1 568.1 139.7 568.1 162.6V162.7C568.1 179.7 579.7 191.4 601.5 195.4L621.4 199.1C630.5 200.8 633.8 203.1 633.8 207.1V207.2C633.8 211.6 628.9 214.3 621 214.3C611.8 214.3 606.9 210.5 605.3 204.1L605.1 203.3H565.7L565.8 204.2C568.3 226.1 586.4 241 621.1 241C653 241 674.3 226.3 674.3 202.6V202.5C674.1 185.7 663.5 176.5 639.8 172.1Z" fill="white"/>
<path d="M752.8 158V128.5H733.5V104.4H692.7V128.5H678V158H692.5V205.2C692.5 231.1 705.3 240.9 733.8 240.9C742.5 240.9 748.2 240.2 752.6 239.4V210.9C750.4 211.2 748.7 211.4 745.6 211.4C737.2 211.4 733.2 207.8 733.2 198.9V158H752.8Z" fill="white"/>
<path d="M220.4 163.9C210.8 158.3 199.4 154.9 186.3 153.7V152.8C196.8 151.1 205.9 147.6 213.8 142.3C221.7 137 227.8 130.3 232.3 122.3C236.7 114.3 239 105.2 239 95.1V94.7C239 81.5 235.6 70 228.8 60.4C222 50.7 212.4 43.3 199.9 38.1C187.4 32.9 172.5 30.3 155.2 30.3H132.9V0H80.9V30.3H0.199951V290.3H80.9V319H132.9V290.3H157.2C176.5 290.3 193.2 287.4 207.3 281.5C221.4 275.6 232.2 267.2 239.8 256.2C247.4 245.2 251.2 232.1 251.2 216.8V216.4C251.2 205 248.5 194.8 243 185.8C237.6 176.8 230 169.5 220.4 163.9ZM137.4 76C149 76 158.2 78.6 164.8 83.7C171.4 88.9 174.7 96.2 174.7 105.7V106.1C174.7 116.1 171 123.8 163.5 129.3C156.1 134.8 145.4 137.5 131.4 137.5H65.0999V76H137.4ZM184.7 211.5C184.7 222.2 180.9 230.4 173.3 236C165.7 241.6 154.9 244.5 140.9 244.5H64.9999V178.4H138.5C148.5 178.4 156.9 179.6 163.7 182.1C170.5 184.6 175.7 188.3 179.3 193.2C182.8 198.1 184.6 204.1 184.6 211.2V211.5H184.7Z" fill="white"/>
</svg>
