<svg width="753" height="319" viewBox="0 0 753 319" fill="none" xmlns="http://www.w3.org/2000/svg">
<path d="M323.3 104.4H282.5V128.5H268V158H282.5V205.2C282.5 231.1 295.3 240.9 323.8 240.9C332.5 240.9 338.2 240.2 342.6 239.4V210.9C340.4 211.2 338.7 211.4 335.6 211.4C327.2 211.4 323.2 207.8 323.2 198.9V158H342.5V128.5H323.2V104.4H323.3Z" fill="black"/>
<path d="M397.7 148.3H396.9V128.6H356.1V238.6H396.9V183C396.9 167.7 404.8 159.9 420.1 159.9C424.3 159.9 428.5 160.7 432 162.2V127.8C428.9 126.7 425.6 126.2 422.1 126.2C409 126.2 400.5 133.9 397.7 148.3Z" fill="black"/>
<path d="M515 190.3C515 200.6 509.1 208 499.5 208C489.2 208 484.1 201.2 484.1 190.2V128.5H443.3V199.1C443.3 225.5 456.8 240.8 481.1 240.8C497.7 240.8 509 232.8 514.4 218H515.2V238.4H556V128.4H515.2V190.3H515Z" fill="black"/>
<path d="M639.6 172.1L619.7 168.4C609.7 166.5 606.9 164.3 606.9 160.4V160.3C606.9 155.6 611.8 152.8 619.3 152.8C628.1 152.8 632.9 157.7 633.5 162.9L633.6 163.8H670.7V163.1C670.7 143.1 653.4 126.1 619.3 126.1C587.3 126.1 567.9 139.7 567.9 162.6V162.7C567.9 179.7 579.5 191.4 601.3 195.4L621.2 199.1C630.3 200.8 633.6 203.1 633.6 207.1V207.2C633.6 211.6 628.7 214.3 620.8 214.3C611.6 214.3 606.7 210.5 605.1 204.1L604.9 203.3H565.5L565.6 204.2C568.1 226.1 586.2 241 620.9 241C652.8 241 674.1 226.3 674.1 202.6V202.5C673.9 185.7 663.3 176.5 639.6 172.1Z" fill="black"/>
<path d="M752.6 158V128.5H733.3V104.4H692.5V128.5H677.8V158H692.3V205.2C692.3 231.1 705.1 240.9 733.6 240.9C742.3 240.9 748 240.2 752.4 239.4V210.9C750.2 211.2 748.5 211.4 745.4 211.4C737 211.4 733 207.8 733 198.9V158H752.6Z" fill="black"/>
<path d="M220.2 163.9C210.6 158.3 199.2 154.9 186.1 153.7V152.8C196.6 151.1 205.7 147.6 213.6 142.3C221.5 137 227.6 130.3 232.1 122.3C236.5 114.3 238.8 105.2 238.8 95.1V94.6999C238.8 81.4999 235.4 70 228.6 60.4C221.8 50.7 212.2 43.3 199.7 38.1C187.2 32.9 172.3 30.3 155 30.3H132.7V0H80.7V30.3H0V290.3H80.7V319H132.7V290.3H157C176.3 290.3 193 287.4 207.1 281.5C221.2 275.6 232 267.2 239.6 256.2C247.2 245.2 251 232.1 251 216.8V216.4C251 205 248.3 194.8 242.8 185.8C237.4 176.8 229.8 169.5 220.2 163.9ZM137.2 76C148.8 76 158 78.6 164.6 83.7C171.2 88.8999 174.5 96.2 174.5 105.7V106.1C174.5 116.1 170.8 123.8 163.3 129.3C155.9 134.8 145.2 137.5 131.2 137.5H64.9V76H137.2ZM184.5 211.5C184.5 222.2 180.7 230.4 173.1 236C165.5 241.6 154.7 244.5 140.7 244.5H64.8V178.4H138.3C148.3 178.4 156.7 179.6 163.5 182.1C170.3 184.6 175.5 188.3 179.1 193.2C182.6 198.1 184.4 204.1 184.4 211.2V211.5H184.5Z" fill="black"/>
</svg>
